<svg width="1209" height="200" viewBox="0 0 1209 200" fill="none" xmlns="http://www.w3.org/2000/svg">
<rect width="200" height="200" fill="white"/>
<path d="M50.576 96.768C41.36 96.768 33.584 93.792 27.248 87.84C20.912 81.888 17.744 73.344 17.744 62.4C17.744 55.104 19.28 48.768 22.448 43.392C25.52 38.112 29.552 34.272 34.448 31.776C39.248 29.28 44.624 28.032 50.576 28.032C58.16 28.032 64.688 30.144 70.16 34.272C75.632 38.496 78.8 43.872 79.76 50.4H69.296C68.72 46.464 66.608 43.2 63.056 40.704C59.504 38.208 55.28 36.864 50.48 36.864C43.76 36.864 38.288 39.168 34.16 43.584C30.032 48 28.016 54.336 28.016 62.4C28.016 70.56 30.032 76.896 34.16 81.312C38.288 85.728 43.76 87.936 50.48 87.936C55.472 87.936 59.696 86.688 63.344 84.096C66.896 81.6 68.912 78.336 69.488 74.4H79.568C78.8 81.024 75.728 86.4 70.352 90.528C64.976 94.752 58.352 96.768 50.576 96.768ZM102.049 96V37.632H81.0248V28.8H133.057V37.632H112.033V96H102.049Z" fill="black"/>
<path d="M225.68 66V10H234.96L261.92 53.12V10H270.24V66H261.04L234 22.96V66H225.68ZM304.898 66.64C296.898 66.64 290.258 63.92 284.978 58.48C279.698 53.04 277.058 46.24 277.058 38C277.058 29.84 279.698 22.96 284.978 17.52C290.258 12.08 296.898 9.36 304.898 9.36C312.818 9.36 319.458 12.08 324.738 17.52C330.018 22.96 332.658 29.84 332.658 38C332.658 46.24 330.018 53.04 324.738 58.48C319.458 63.92 312.818 66.64 304.898 66.64ZM304.898 59.28C310.418 59.28 314.978 57.28 318.658 53.28C322.338 49.28 324.178 44.16 324.178 38C324.178 31.92 322.338 26.8 318.658 22.8C314.978 18.8 310.418 16.72 304.898 16.72C299.298 16.72 294.738 18.8 291.058 22.8C287.378 26.8 285.538 31.92 285.538 38C285.538 44.16 287.378 49.28 291.058 53.28C294.738 57.28 299.298 59.28 304.898 59.28ZM348.619 66V17.36H331.099V10H374.459V17.36H356.939V66H348.619ZM433.334 66L427.974 51.76H404.214L398.854 66H390.294L412.294 10H419.974L441.974 66H433.334ZM407.014 44.48H425.254L416.134 20.4L407.014 44.48ZM445.914 66V10H455.194L482.154 53.12V10H490.474V66H481.274L454.234 22.96V66H445.914ZM525.132 66.64C517.132 66.64 510.492 63.92 505.212 58.48C499.932 53.04 497.292 46.24 497.292 38C497.292 29.84 499.932 22.96 505.212 17.52C510.492 12.08 517.132 9.36 525.132 9.36C533.052 9.36 539.692 12.08 544.972 17.52C550.252 22.96 552.892 29.84 552.892 38C552.892 46.24 550.252 53.04 544.972 58.48C539.692 63.92 533.052 66.64 525.132 66.64ZM525.132 59.28C530.652 59.28 535.212 57.28 538.892 53.28C542.572 49.28 544.412 44.16 544.412 38C544.412 31.92 542.572 26.8 538.892 22.8C535.212 18.8 530.652 16.72 525.132 16.72C519.532 16.72 514.972 18.8 511.292 22.8C507.612 26.8 505.772 31.92 505.772 38C505.772 44.16 507.612 49.28 511.292 53.28C514.972 57.28 519.532 59.28 525.132 59.28ZM568.853 66V17.36H551.333V10H594.693V17.36H577.173V66H568.853ZM634.744 10H643.064V66H634.744V40.88H606.984V66H598.664V10H606.984V33.52H634.744V10ZM652.446 66V10H688.366V17.36H660.766V33.44H683.086V40.8H660.766V58.64H689.246V66H652.446ZM727.989 39.44C732.309 42 734.709 46.08 735.029 51.68L736.149 66H728.069L726.949 52.4C726.709 49.92 725.829 47.92 724.309 46.32C722.709 44.72 720.789 43.92 718.469 43.92H704.469V66H696.149V10H718.069C723.669 10 728.069 11.6 731.349 14.64C734.549 17.68 736.229 21.76 736.229 26.8C736.229 32.48 733.429 36.72 727.989 39.44ZM704.469 17.2V36.56H717.829C721.189 36.56 723.749 35.68 725.429 33.76C727.029 31.92 727.909 29.6 727.909 26.8C727.909 24.08 727.029 21.76 725.429 19.92C723.749 18.16 721.189 17.2 717.829 17.2H704.469ZM225.68 132V76H247.36C252.88 76 257.28 77.6 260.56 80.72C263.76 83.84 265.44 87.92 265.44 92.88C265.44 97.92 263.76 102 260.56 105.12C257.28 108.24 252.88 109.76 247.36 109.76H234V132H225.68ZM234 102.56H247.12C250.48 102.56 252.96 101.68 254.64 99.84C256.24 98.08 257.12 95.76 257.12 92.88C257.12 90.08 256.24 87.76 254.64 85.92C252.96 84.16 250.48 83.2 247.12 83.2H234V102.56ZM302.864 105.44C307.184 108 309.584 112.08 309.904 117.68L311.024 132H302.944L301.824 118.4C301.584 115.92 300.704 113.92 299.184 112.32C297.584 110.72 295.664 109.92 293.344 109.92H279.344V132H271.024V76H292.944C298.544 76 302.944 77.6 306.224 80.64C309.424 83.68 311.104 87.76 311.104 92.8C311.104 98.48 308.304 102.72 302.864 105.44ZM279.344 83.2V102.56H292.704C296.064 102.56 298.624 101.68 300.304 99.76C301.904 97.92 302.784 95.6 302.784 92.8C302.784 90.08 301.904 87.76 300.304 85.92C298.624 84.16 296.064 83.2 292.704 83.2H279.344ZM343.991 132.64C335.991 132.64 329.351 129.92 324.071 124.48C318.791 119.04 316.151 112.24 316.151 104C316.151 95.84 318.791 88.96 324.071 83.52C329.351 78.08 335.991 75.36 343.991 75.36C351.911 75.36 358.551 78.08 363.831 83.52C369.111 88.96 371.751 95.84 371.751 104C371.751 112.24 369.111 119.04 363.831 124.48C358.551 129.92 351.911 132.64 343.991 132.64ZM343.991 125.28C349.511 125.28 354.071 123.28 357.751 119.28C361.431 115.28 363.271 110.16 363.271 104C363.271 97.92 361.431 92.8 357.751 88.8C354.071 84.8 349.511 82.72 343.991 82.72C338.391 82.72 333.831 84.8 330.151 88.8C326.471 92.8 324.631 97.92 324.631 104C324.631 110.16 326.471 115.28 330.151 119.28C333.831 123.28 338.391 125.28 343.991 125.28ZM378.664 132V76H395.864C404.024 76 410.744 78.48 416.104 83.44C421.384 88.4 424.104 95.2 424.104 104C424.104 112.8 421.384 119.68 416.104 124.64C410.744 129.6 404.024 132 395.864 132H378.664ZM386.984 124.64H395.384C401.064 124.64 405.864 122.96 409.704 119.52C413.544 116.16 415.544 110.96 415.544 104C415.544 97.12 413.544 91.92 409.704 88.48C405.864 85.12 401.064 83.36 395.384 83.36H386.984V124.64ZM451.363 132.64C444.803 132.64 439.603 130.88 435.763 127.28C431.843 123.68 429.923 118.72 429.923 112.4V76H437.923V112.64C437.923 116.64 439.123 119.68 441.603 121.92C444.003 124.16 447.283 125.2 451.363 125.2C455.443 125.2 458.723 124.16 461.203 121.92C463.603 119.68 464.883 116.64 464.883 112.64V76H472.883V112.4C472.883 118.72 470.883 123.68 466.963 127.28C463.043 130.88 457.843 132.64 451.363 132.64ZM506.027 132.64C498.347 132.64 491.867 130.16 486.587 125.2C481.307 120.24 478.667 113.12 478.667 104C478.667 97.92 479.947 92.64 482.587 88.16C485.147 83.76 488.507 80.56 492.587 78.48C496.587 76.4 501.067 75.36 506.027 75.36C512.347 75.36 517.787 77.12 522.347 80.56C526.907 84.08 529.547 88.56 530.347 94H521.627C521.147 90.72 519.387 88 516.427 85.92C513.467 83.84 509.947 82.72 505.947 82.72C500.347 82.72 495.787 84.64 492.347 88.32C488.907 92 487.227 97.28 487.227 104C487.227 110.8 488.907 116.08 492.347 119.76C495.787 123.44 500.347 125.28 505.947 125.28C510.107 125.28 513.627 124.24 516.667 122.08C519.627 120 521.307 117.28 521.787 114H530.187C529.547 119.52 526.987 124 522.507 127.44C518.027 130.96 512.507 132.64 506.027 132.64ZM548.588 132V83.36H531.068V76H574.428V83.36H556.908V132H548.588ZM578.399 132V76H586.719V132H578.399ZM621.366 132.64C613.366 132.64 606.726 129.92 601.446 124.48C596.166 119.04 593.526 112.24 593.526 104C593.526 95.84 596.166 88.96 601.446 83.52C606.726 78.08 613.366 75.36 621.366 75.36C629.286 75.36 635.926 78.08 641.206 83.52C646.486 88.96 649.126 95.84 649.126 104C649.126 112.24 646.486 119.04 641.206 124.48C635.926 129.92 629.286 132.64 621.366 132.64ZM621.366 125.28C626.886 125.28 631.446 123.28 635.126 119.28C638.806 115.28 640.646 110.16 640.646 104C640.646 97.92 638.806 92.8 635.126 88.8C631.446 84.8 626.886 82.72 621.366 82.72C615.766 82.72 611.206 84.8 607.526 88.8C603.846 92.8 602.006 97.92 602.006 104C602.006 110.16 603.846 115.28 607.526 119.28C611.206 123.28 615.766 125.28 621.366 125.28ZM656.039 132V76H665.319L692.279 119.12V76H700.599V132H691.399L664.359 88.96V132H656.039ZM261.76 142H270.08V198H261.76V172.88H234V198H225.68V142H234V165.52H261.76V142ZM304.741 198.64C296.741 198.64 290.101 195.92 284.821 190.48C279.541 185.04 276.901 178.24 276.901 170C276.901 161.84 279.541 154.96 284.821 149.52C290.101 144.08 296.741 141.36 304.741 141.36C312.661 141.36 319.301 144.08 324.581 149.52C329.861 154.96 332.501 161.84 332.501 170C332.501 178.24 329.861 185.04 324.581 190.48C319.301 195.92 312.661 198.64 304.741 198.64ZM304.741 191.28C310.261 191.28 314.821 189.28 318.501 185.28C322.181 181.28 324.021 176.16 324.021 170C324.021 163.92 322.181 158.8 318.501 154.8C314.821 150.8 310.261 148.72 304.741 148.72C299.141 148.72 294.581 150.8 290.901 154.8C287.221 158.8 285.381 163.92 285.381 170C285.381 176.16 287.221 181.28 290.901 185.28C294.581 189.28 299.141 191.28 304.741 191.28ZM359.894 198.64C353.334 198.64 348.134 196.88 344.294 193.28C340.374 189.68 338.454 184.72 338.454 178.4V142H346.454V178.64C346.454 182.64 347.654 185.68 350.134 187.92C352.534 190.16 355.814 191.2 359.894 191.2C363.974 191.2 367.254 190.16 369.734 187.92C372.134 185.68 373.414 182.64 373.414 178.64V142H381.414V178.4C381.414 184.72 379.414 189.68 375.494 193.28C371.574 196.88 366.374 198.64 359.894 198.64ZM407.842 198.64C401.522 198.64 396.482 196.96 392.642 193.44C388.802 190 386.802 185.36 386.482 179.44H394.562C394.882 183.12 396.162 186.08 398.482 188.16C400.802 190.24 403.922 191.28 407.842 191.28C411.522 191.28 414.402 190.56 416.642 189.12C418.882 187.68 420.002 185.44 420.002 182.48C420.002 180.4 419.202 178.72 417.602 177.36C416.002 176 414.082 175.04 411.762 174.4C409.362 173.76 406.802 173.04 404.082 172.16C401.362 171.36 398.802 170.4 396.482 169.44C394.082 168.48 392.162 166.88 390.562 164.64C388.962 162.4 388.242 159.68 388.242 156.48C388.242 152 390.002 148.4 393.522 145.6C397.042 142.8 401.682 141.36 407.362 141.36C413.042 141.36 417.682 142.96 421.362 146C424.962 149.04 426.962 153.12 427.362 158.24H419.282C418.962 155.36 417.762 153.12 415.682 151.36C413.522 149.6 410.722 148.72 407.362 148.72C404.002 148.72 401.362 149.44 399.442 150.88C397.522 152.32 396.562 154.16 396.562 156.48C396.562 158.32 397.122 159.84 398.322 161.04C399.442 162.32 400.962 163.2 402.882 163.84C404.722 164.48 406.802 165.12 409.122 165.6C411.362 166.16 413.682 166.8 415.922 167.52C418.162 168.32 420.242 169.2 422.162 170.32C424.002 171.44 425.522 172.96 426.722 175.04C427.842 177.12 428.482 179.52 428.482 182.4C428.482 187.44 426.562 191.44 422.722 194.32C418.882 197.2 413.922 198.64 407.842 198.64ZM434.868 198V142H470.788V149.36H443.188V165.44H465.508V172.8H443.188V190.64H471.668V198H434.868Z" fill="white"/>
<rect width="10" height="200" transform="translate(763)" fill="white"/>
<rect width="10" height="200" transform="translate(989)" fill="white"/>
<rect width="10" height="200" transform="translate(873)" fill="white"/>
<rect width="10" height="200" transform="translate(1099)" fill="white"/>
<rect width="18" height="200" transform="translate(779)" fill="white"/>
<rect width="19" height="200" transform="translate(1004)" fill="white"/>
<rect width="19" height="200" transform="translate(889)" fill="white"/>
<rect width="19" height="200" transform="translate(1114)" fill="white"/>
<rect width="12" height="200" transform="translate(843)" fill="white"/>
<rect width="12" height="200" transform="translate(1069)" fill="white"/>
<rect width="30" height="200" transform="translate(953)" fill="white"/>
<rect width="30" height="200" transform="translate(1179)" fill="white"/>
<rect width="35" height="200" transform="translate(803)" fill="white"/>
<rect width="20" height="200" transform="translate(1043)" fill="white"/>
<rect width="9" height="200" transform="translate(939)" fill="white"/>
<rect width="8" height="200" transform="translate(1165)" fill="white"/>
</svg>
